# xmcd
#
# Track frame offsets:
#	150
#	14714
#	36500
#	54195
#	71960
#	88866
#	103814
#	118534
#	133188
#	155524
#	171784
#	189615
#	207304
#	225668
#	244784
#	261306
#	275160
#	296658
#	311967
#
# Disc length: 4396 seconds
#
# Revision: 0
# Processed by: cddbd v1.4PL0 Copyright (c) Steve Scherf et al.
# Submitted via: dBpowerAMP V4.0
#
DISCID=30112a13
DTITLE=Various Artist - Gen Songs
DYEAR=2002
DGENRE=Country
TTITLE0=Kon Dan Kuwan - 01.Chuh
TTITLE1=Kon Dan Kuwan - 02.KangLang Paph
TTITLE2=Kon Dan Kuwan - 03.Nam Ta Mod Dang
TTITLE3=Kon Dan Kuwan - 04.Hua Chai Mak Nai
TTITLE4=Kon Dan Kuwan - 05.Sood Tai Te
TTITLE5=Kon Dan Kuwan - Track06
TTITLE6=Kon Dan Kuwan - Track07
TTITLE7=Kon Dan Kuwan - Track08
TTITLE8=Kon Dan Kuwan - Track09
TTITLE9=Kon Dan Kuwan - Track10
TTITLE10=Kon Dan Kuwan - 11. PakSan Rose
TTITLE11=Kon Dan Kuwan - Track12
TTITLE12=Kon Dan Kuwan - Track13
TTITLE13=Kon Dan Kuwan - Track14
TTITLE14=Kon Dan Kuwan - Track15
TTITLE15=Kon Dan Kuwan - Track16
TTITLE16=Kon Dan Kuwan - Track17
TTITLE17=Kon Dan Kuwan - Track18
TTITLE18=Kon Dan Kuwan - Track19
EXTD=
EXTT0=
EXTT1=
EXTT2=
EXTT3=
EXTT4=
EXTT5=
EXTT6=
EXTT7=
EXTT8=
EXTT9=
EXTT10=
EXTT11=
EXTT12=
EXTT13=
EXTT14=
EXTT15=
EXTT16=
EXTT17=
EXTT18=
PLAYORDER=
